<!--
  CAJAL figure - Experience Design for EdTech
  Chapter: 09-designing-for-variability-udl-accessibility-and-the-equity-test - Figure 05
  The Shape of UDL 3.0: Principles, Guidelines, Considerations - three-column taxonomy - priority: Supplementary
  Generated 2026-06-07 - source: pantry/09-designing-for-variability-udl-accessibility-and-the-equity-test-cajal.md
-->
<svg viewBox="0 0 700 480" xmlns="http://www.w3.org/2000/svg" role="img" aria-labelledby="fig-title-05">
  <title id="fig-title-05">The Shape of UDL 3.0: Principles, Guidelines, Considerations — 09-designing-for-variability-udl-accessibility-and-the-equity-test</title>
  <desc>Three coordinate columns with no root node — engagement, representation, action and expression — each carrying three named guidelines and, under each guideline, a band of four dots: considerations kept grouped, not enumerated as a checklist. 3 by 3 by 4 equals 36.</desc>
  <metadata><cajal:figure xmlns:cajal="https://bearbrown.ai/cajal/1.0" book="Experience Design for EdTech" book-slug="experience-design-for-edtech" chapter="09-designing-for-variability-udl-accessibility-and-the-equity-test" figure-number="05" figure-title="The Shape of UDL 3.0: Principles, Guidelines, Considerations" figure-slug="udl-3-0-taxonomy" figure-type="three-level-taxonomy" priority="Supplementary" author="Nik Bear Brown" date-generated="2026-06-07" source-file="pantry/09-designing-for-variability-udl-accessibility-and-the-equity-test-cajal.md"/></metadata>

  <text x="32" y="40" font-family="'EB Garamond', 'Garamond', Georgia, serif" font-size="14" fill="#2a1a0e">Figure 9.5 · The Shape of UDL 3.0: Principles, Guidelines, Considerations</text>

  <!-- column 1: engagement -->
  <rect x="62" y="70" width="176" height="46" fill="#FFFFFF" stroke="#2a1a0e" stroke-width="1.25"/>
  <text x="150" y="89" text-anchor="middle" font-family="'Inter', -apple-system, 'Helvetica Neue', sans-serif" font-size="12" font-weight="bold" fill="#2a1a0e">ENGAGEMENT</text>
  <text x="150" y="105" text-anchor="middle" font-family="'Inter', -apple-system, 'Helvetica Neue', sans-serif" font-size="11" fill="#545454">multiple means — the why</text>
  <path d="M62,93 L50,93 L50,322 M50,170 L64,170 M50,246 L64,246 M50,322 L64,322" fill="none" stroke="#D4D4D4" stroke-width="1"/>
  <rect x="64" y="148" width="172" height="44" fill="#FFFFFF" stroke="#D4D4D4" stroke-width="1"/>
  <text x="150" y="166" text-anchor="middle" font-family="'Inter', -apple-system, 'Helvetica Neue', sans-serif" font-size="11" fill="#2a1a0e">Welcoming Interests</text>
  <text x="150" y="180" text-anchor="middle" font-family="'Inter', -apple-system, 'Helvetica Neue', sans-serif" font-size="11" fill="#2a1a0e">&amp; Identities</text>
  <rect x="114" y="196" width="72" height="12" fill="#F5F5F5" stroke="#D4D4D4" stroke-width="1"/>
  <circle cx="126" cy="202" r="2.5" fill="#2a1a0e"/><circle cx="142" cy="202" r="2.5" fill="#2a1a0e"/><circle cx="158" cy="202" r="2.5" fill="#2a1a0e"/><circle cx="174" cy="202" r="2.5" fill="#2a1a0e"/>
  <rect x="64" y="224" width="172" height="44" fill="#FFFFFF" stroke="#D4D4D4" stroke-width="1"/>
  <text x="150" y="242" text-anchor="middle" font-family="'Inter', -apple-system, 'Helvetica Neue', sans-serif" font-size="11" fill="#2a1a0e">Sustaining Effort</text>
  <text x="150" y="256" text-anchor="middle" font-family="'Inter', -apple-system, 'Helvetica Neue', sans-serif" font-size="11" fill="#2a1a0e">&amp; Persistence</text>
  <rect x="114" y="272" width="72" height="12" fill="#F5F5F5" stroke="#D4D4D4" stroke-width="1"/>
  <circle cx="126" cy="278" r="2.5" fill="#2a1a0e"/><circle cx="142" cy="278" r="2.5" fill="#2a1a0e"/><circle cx="158" cy="278" r="2.5" fill="#2a1a0e"/><circle cx="174" cy="278" r="2.5" fill="#2a1a0e"/>
  <rect x="64" y="300" width="172" height="44" fill="#FFFFFF" stroke="#D4D4D4" stroke-width="1"/>
  <text x="150" y="326" text-anchor="middle" font-family="'Inter', -apple-system, 'Helvetica Neue', sans-serif" font-size="11" fill="#2a1a0e">Emotional Capacity</text>
  <rect x="114" y="348" width="72" height="12" fill="#F5F5F5" stroke="#D4D4D4" stroke-width="1"/>
  <circle cx="126" cy="354" r="2.5" fill="#2a1a0e"/><circle cx="142" cy="354" r="2.5" fill="#2a1a0e"/><circle cx="158" cy="354" r="2.5" fill="#2a1a0e"/><circle cx="174" cy="354" r="2.5" fill="#2a1a0e"/>

  <!-- column 2: representation -->
  <rect x="262" y="70" width="176" height="46" fill="#FFFFFF" stroke="#2a1a0e" stroke-width="1.25"/>
  <text x="350" y="89" text-anchor="middle" font-family="'Inter', -apple-system, 'Helvetica Neue', sans-serif" font-size="12" font-weight="bold" fill="#2a1a0e">REPRESENTATION</text>
  <text x="350" y="105" text-anchor="middle" font-family="'Inter', -apple-system, 'Helvetica Neue', sans-serif" font-size="11" fill="#545454">multiple means — the what</text>
  <path d="M262,93 L250,93 L250,322 M250,170 L264,170 M250,246 L264,246 M250,322 L264,322" fill="none" stroke="#D4D4D4" stroke-width="1"/>
  <rect x="264" y="148" width="172" height="44" fill="#FFFFFF" stroke="#D4D4D4" stroke-width="1"/>
  <text x="350" y="174" text-anchor="middle" font-family="'Inter', -apple-system, 'Helvetica Neue', sans-serif" font-size="11" fill="#2a1a0e">Perception</text>
  <rect x="314" y="196" width="72" height="12" fill="#F5F5F5" stroke="#D4D4D4" stroke-width="1"/>
  <circle cx="326" cy="202" r="2.5" fill="#2a1a0e"/><circle cx="342" cy="202" r="2.5" fill="#2a1a0e"/><circle cx="358" cy="202" r="2.5" fill="#2a1a0e"/><circle cx="374" cy="202" r="2.5" fill="#2a1a0e"/>
  <rect x="264" y="224" width="172" height="44" fill="#FFFFFF" stroke="#D4D4D4" stroke-width="1"/>
  <text x="350" y="250" text-anchor="middle" font-family="'Inter', -apple-system, 'Helvetica Neue', sans-serif" font-size="11" fill="#2a1a0e">Language &amp; Symbols</text>
  <rect x="314" y="272" width="72" height="12" fill="#F5F5F5" stroke="#D4D4D4" stroke-width="1"/>
  <circle cx="326" cy="278" r="2.5" fill="#2a1a0e"/><circle cx="342" cy="278" r="2.5" fill="#2a1a0e"/><circle cx="358" cy="278" r="2.5" fill="#2a1a0e"/><circle cx="374" cy="278" r="2.5" fill="#2a1a0e"/>
  <rect x="264" y="300" width="172" height="44" fill="#FFFFFF" stroke="#D4D4D4" stroke-width="1"/>
  <text x="350" y="326" text-anchor="middle" font-family="'Inter', -apple-system, 'Helvetica Neue', sans-serif" font-size="11" fill="#2a1a0e">Building Knowledge</text>
  <rect x="314" y="348" width="72" height="12" fill="#F5F5F5" stroke="#D4D4D4" stroke-width="1"/>
  <circle cx="326" cy="354" r="2.5" fill="#2a1a0e"/><circle cx="342" cy="354" r="2.5" fill="#2a1a0e"/><circle cx="358" cy="354" r="2.5" fill="#2a1a0e"/><circle cx="374" cy="354" r="2.5" fill="#2a1a0e"/>

  <!-- column 3: action and expression -->
  <rect x="462" y="70" width="176" height="46" fill="#FFFFFF" stroke="#2a1a0e" stroke-width="1.25"/>
  <text x="550" y="89" text-anchor="middle" font-family="'Inter', -apple-system, 'Helvetica Neue', sans-serif" font-size="12" font-weight="bold" fill="#2a1a0e">ACTION &amp; EXPRESSION</text>
  <text x="550" y="105" text-anchor="middle" font-family="'Inter', -apple-system, 'Helvetica Neue', sans-serif" font-size="11" fill="#545454">multiple means — the how</text>
  <path d="M462,93 L450,93 L450,322 M450,170 L464,170 M450,246 L464,246 M450,322 L464,322" fill="none" stroke="#D4D4D4" stroke-width="1"/>
  <rect x="464" y="148" width="172" height="44" fill="#FFFFFF" stroke="#D4D4D4" stroke-width="1"/>
  <text x="550" y="174" text-anchor="middle" font-family="'Inter', -apple-system, 'Helvetica Neue', sans-serif" font-size="11" fill="#2a1a0e">Interaction</text>
  <rect x="514" y="196" width="72" height="12" fill="#F5F5F5" stroke="#D4D4D4" stroke-width="1"/>
  <circle cx="526" cy="202" r="2.5" fill="#2a1a0e"/><circle cx="542" cy="202" r="2.5" fill="#2a1a0e"/><circle cx="558" cy="202" r="2.5" fill="#2a1a0e"/><circle cx="574" cy="202" r="2.5" fill="#2a1a0e"/>
  <rect x="464" y="224" width="172" height="44" fill="#FFFFFF" stroke="#D4D4D4" stroke-width="1"/>
  <text x="550" y="242" text-anchor="middle" font-family="'Inter', -apple-system, 'Helvetica Neue', sans-serif" font-size="11" fill="#2a1a0e">Expression &amp;</text>
  <text x="550" y="256" text-anchor="middle" font-family="'Inter', -apple-system, 'Helvetica Neue', sans-serif" font-size="11" fill="#2a1a0e">Communication</text>
  <rect x="514" y="272" width="72" height="12" fill="#F5F5F5" stroke="#D4D4D4" stroke-width="1"/>
  <circle cx="526" cy="278" r="2.5" fill="#2a1a0e"/><circle cx="542" cy="278" r="2.5" fill="#2a1a0e"/><circle cx="558" cy="278" r="2.5" fill="#2a1a0e"/><circle cx="574" cy="278" r="2.5" fill="#2a1a0e"/>
  <rect x="464" y="300" width="172" height="44" fill="#FFFFFF" stroke="#D4D4D4" stroke-width="1"/>
  <text x="550" y="326" text-anchor="middle" font-family="'Inter', -apple-system, 'Helvetica Neue', sans-serif" font-size="11" fill="#2a1a0e">Strategy Development</text>
  <rect x="514" y="348" width="72" height="12" fill="#F5F5F5" stroke="#D4D4D4" stroke-width="1"/>
  <circle cx="526" cy="354" r="2.5" fill="#2a1a0e"/><circle cx="542" cy="354" r="2.5" fill="#2a1a0e"/><circle cx="558" cy="354" r="2.5" fill="#2a1a0e"/><circle cx="574" cy="354" r="2.5" fill="#2a1a0e"/>

  <text x="350" y="392" text-anchor="middle" font-family="'Inter', -apple-system, 'Helvetica Neue', sans-serif" font-size="11" fill="#545454">each gray band groups that guideline’s four considerations — 3 principles × 3 guidelines × 4 = 36</text>

  <text x="32" y="424" font-family="'Inter', -apple-system, 'Helvetica Neue', sans-serif" font-size="11" fill="#545454">Three coordinate principles — deliberately no root node: none is primary, and no umbrella construct sits above them.</text>
  <text x="32" y="438" font-family="'Inter', -apple-system, 'Helvetica Neue', sans-serif" font-size="11" fill="#545454">Considerations stay grouped, not enumerated: the framework renamed “checkpoints” to resist checklist semantics.</text>
  <text x="32" y="460" font-family="'Inter', -apple-system, 'Helvetica Neue', sans-serif" font-size="10" letter-spacing="0.08em" fill="#545454">SOURCE: CAST, UDL GUIDELINES 3.0 (2024)</text>
</svg>
